<svg width="200mm" height="200mm" viewBox="0 0 1800 1800" preserveAspectRatio="xMidYMid meet" xmlns="http://www.w3.org/2000/svg"><rect x="0" y="0" width="1800" height="1800" fill="white" stroke="none"/><circle cx="900" cy="900" r="899" fill="white" stroke="black"/><circle cx="900" cy="900" r="700" fill="black" stroke="none"/><path stroke="black" d="M900,1800 L900,1775 M900,0 L900,25 M0,900 L25,900 M1800,900 L1775,900"/><circle cx="900" cy="900" r="420" fill="white" stroke="none"/><path fill="black" stroke="none" d="M900,900 L1550,900 1462.92,575 900,900 1225,337.083 900,250 900,900 250,900 337.083,575 900,900 575,1462.92 337.083,1225 900,900 575,1462.92 900,1550 900,900 1550,900 1462.92,1225 900,900 Z"/><circle cx="900" cy="900" r="240" fill="white" stroke="none"/><text x="1600" y="100" fill="black" font-size="44">&#8635; 6</text></svg>